<svg width="266" height="90" viewBox="0 0 266 90" fill="none" xmlns="http://www.w3.org/2000/svg">
<circle cx="50.5" cy="48.5" r="36.5" fill="#5E4CE9"/>
<circle cx="107.5" cy="44.5" r="7.5" fill="#5E4CE9"/>
<ellipse cx="71" cy="36.5" rx="21" ry="20.5" fill="#F7A50C" fill-opacity="0.68"/>
<circle cx="38" cy="40" r="30" fill="#6D1089" fill-opacity="0.68"/>
<ellipse cx="66" cy="61.5" rx="21" ry="21.5" fill="#FF2E69" fill-opacity="0.8"/>
<circle cx="2.5" cy="60.5" r="2.5" fill="#BA6DD2" fill-opacity="0.68"/>
<circle cx="19.5" cy="87.5" r="2.5" fill="#F7A50C" fill-opacity="0.68"/>
<circle cx="66" cy="5" r="5" fill="#FF2E69" fill-opacity="0.68"/>
<circle cx="98" cy="58" r="3" fill="#FF2E69" fill-opacity="0.68"/>
<path d="M38.1363 42.4378C38.4445 41.1448 37.6274 39.8511 36.3112 39.5483C34.9949 39.2455 33.678 40.0482 33.3698 41.3412C33.0616 42.6343 33.8787 43.928 35.1949 44.2308C36.5112 44.5336 37.8281 43.7308 38.1363 42.4378Z" fill="#F7F7F7"/>
<path d="M36.9233 45H35.0557C32.4144 45 30 45.5837 30 46.8108V55.0822C30 55.6489 30.487 56.1093 31.087 56.1093C31.3236 56.1093 31.5417 56.0375 31.7197 55.9169C31.9942 55.7295 32.1722 55.4257 32.1722 55.0822V48.6842H32.6438V67.5881C32.6438 68.368 33.3119 69 34.1363 69H34.2707C35.0955 69 35.7629 68.368 35.7629 67.5881V57.2116H36.2355V67.5881C36.2355 68.368 36.9026 69 37.7277 69H37.8624C38.6866 69 39.3543 68.368 39.3543 67.5881V48.6845H39.8266V55.0816C39.8266 55.423 40.0017 55.7248 40.2709 55.9112C40.4517 56.0366 40.672 56.1098 40.913 56.1098C41.5124 56.1098 42 55.6495 42 55.0816V46.9564C42.0006 45.6844 39.5865 45.0003 36.923 45.0003L36.9233 45Z" fill="#F7F7F7"/>
<path d="M52.4923 38.0108C52.852 36.5022 51.8986 34.9929 50.363 34.6397C48.8274 34.2864 47.291 35.2229 46.9314 36.7315C46.5718 38.24 47.5251 39.7493 49.0608 40.1026C50.5964 40.4558 52.1327 39.5193 52.4923 38.0108Z" fill="#F7F7F7"/>
<path d="M51.0772 41H48.8983C45.8168 41 43 41.6809 43 43.1126V52.7625C43 53.4237 43.5681 53.9608 44.2682 53.9608C44.5442 53.9608 44.7987 53.8771 45.0063 53.7364C45.3266 53.5178 45.5342 53.1633 45.5342 52.7625V45.2982H46.0844V67.3528C46.0844 68.2627 46.8638 69 47.8257 69H47.9825C48.9447 69 49.7234 68.2627 49.7234 67.3528V55.2469H50.2747V67.3528C50.2747 68.2627 51.0531 69 52.0156 69H52.1728C53.1343 69 53.9134 68.2627 53.9134 67.3528V45.2986H54.4643V52.7618C54.4643 53.1602 54.6687 53.5123 54.9827 53.7298C55.1937 53.8761 55.4507 53.9615 55.7318 53.9615C56.4312 53.9615 57 53.4244 57 52.7618V43.2824C57.0007 41.7985 54.1843 41.0003 51.0768 41.0003L51.0772 41Z" fill="#F7F7F7"/>
<path d="M68.8484 33.5837C69.2594 31.8597 68.1698 30.1348 66.4149 29.731C64.6599 29.3273 62.904 30.3976 62.493 32.1217C62.0821 33.8457 63.1716 35.5706 64.9266 35.9744C66.6816 36.3781 68.4374 35.3078 68.8484 33.5837Z" fill="#F7F7F7"/>
<path d="M67.2311 37H64.7409C61.2192 37 58 37.7782 58 39.4144V50.4429C58 51.1986 58.6493 51.8123 59.4494 51.8123C59.7648 51.8123 60.0556 51.7167 60.2929 51.5558C60.6589 51.3061 60.8963 50.9009 60.8963 50.4429V41.9123H61.5251V67.1175C61.5251 68.1574 62.4158 69 63.5151 69H63.6943C64.794 69 65.6839 68.1574 65.6839 67.1175V53.2822H66.314V67.1175C66.314 68.1574 67.2035 69 68.3036 69H68.4832C69.5821 69 70.4724 68.1574 70.4724 67.1175V41.9127H71.1021V50.4421C71.1021 50.8974 71.3356 51.2997 71.6945 51.5483C71.9356 51.7155 72.2293 51.8131 72.5506 51.8131C73.3499 51.8131 74 51.1993 74 50.4421V39.6085C74.0008 37.9126 70.782 37.0004 67.2307 37.0004L67.2311 37Z" fill="#F7F7F7"/>
<path d="M126.8 41.16C125.88 39.96 124.64 39.2 125.52 38.12C129 33.76 134.88 33.72 139.92 32.44C141 32.16 142.16 32.88 142.52 33.76C143 34.84 141.68 35.72 140.8 35.92C137.72 37.04 134.48 36.6 131.64 38.12C131.2 38.36 130.76 38.76 130.96 39.2C134.24 44.24 143.2 46 141.44 52.52C139.92 58.2 131.6 59.16 126.6 56.88C124.36 55.88 125.72 52.96 127.68 52.08C128.8 51.88 128.8 53.4 129.64 53.64C130.52 53.84 131.4 53.64 132.28 54.08C134.04 54.92 135.56 53.84 137.08 53.2C137.96 52.52 137.96 51.44 137.52 50.56C134.44 46.64 129.88 45.12 126.8 41.16ZM143.496 42.24C143.696 39.36 142.416 36.12 143.496 33.6C143.856 32.68 145.456 32.16 146.736 32.52C146.896 32.68 147.256 33.24 147.256 33.4C147.256 37.36 146.736 41.16 146.896 45.12C147.096 45.48 147.616 45.28 147.816 45.28C149.776 43.84 151.776 41.52 154.296 43.12C155.376 43.68 154.496 44.76 153.776 45.12C152.496 46 150.856 46.56 149.616 47.8C152.496 49.96 155.016 52.32 157.536 54.64C158.096 55.36 157.536 56.08 157.016 56.44C156.296 57.36 154.856 57.36 154.296 56.64C152.336 54.64 150.136 53.04 147.976 51.24C147.976 51.24 147.256 50.68 147.456 51.6C147.256 53.2 147.976 55 147.816 56.64C147.616 58.24 145.056 58.28 144.736 57.52C142.736 52.88 143.136 47.44 143.496 42.24ZM159.453 47.88C159.453 46.28 159.453 44.72 160.173 43.32C160.693 42.28 162.093 41.92 163.293 42.44C164.013 42.76 164.853 43.68 164.173 44.36C162.933 46.12 163.653 47.88 163.133 49.44C162.453 51.36 163.653 53.12 163.133 55.04C163.133 55.2 162.933 55.56 162.773 55.56C161.533 55.92 160.013 56.08 159.613 54.84C158.933 52.56 159.453 50.12 159.453 47.88ZM160.453 38.84C159.813 38.04 160.453 36.28 161.013 35.92C162.253 35.2 163.893 35.24 164.613 36.28C165.333 37.36 164.253 39.16 163.533 39.56C162.613 40.04 161.373 39.88 160.453 38.84ZM167.436 43.28C167.556 40.08 165.836 36.48 167.236 33.68C167.996 32.12 170.996 31.72 171.156 34.08C171.196 34.48 170.956 35.28 170.956 35.68C170.956 38.48 171.116 41.48 170.956 44.24C170.716 48.64 171.996 53.04 170.156 57C169.596 58.24 168.196 58.2 167.036 57.6C166.436 57.2 166.196 56.2 166.436 55.4C167.596 51.44 167.236 47.44 167.436 43.28ZM175.366 43.28C175.486 40.08 173.766 36.48 175.166 33.68C175.926 32.12 178.926 31.72 179.086 34.08C179.126 34.48 178.886 35.28 178.886 35.68C178.886 38.48 179.046 41.48 178.886 44.24C178.646 48.64 179.926 53.04 178.086 57C177.526 58.24 176.126 58.2 174.966 57.6C174.366 57.2 174.126 56.2 174.366 55.4C175.526 51.44 175.166 47.44 175.366 43.28Z" fill="#010101"/>
<path d="M185.64 55.16C181.2 50.48 181.12 43.6 182.92 37.6C183.36 36.16 185.2 35.12 186.88 35.92C187.28 36.36 187.68 36.96 187.48 37.8C185.4 42.56 185.24 49.96 189.76 52.68C193.12 54.72 195.16 50 195.56 46.88C196.4 43.36 195.36 39.88 195.36 36.36C195.16 34.88 197.2 34.48 198.88 34.08C198.88 34.68 199.68 34.48 199.68 34.88C200.52 40.88 200.76 46.92 197.2 52.08C194.76 55.6 188.92 58.68 185.64 55.16ZM201.859 44.24C201.939 43.68 201.139 43.16 201.499 42.6C202.619 41.68 201.499 40 202.779 39.12C203.859 38.36 205.179 38.2 205.899 39.12C206.459 39.68 206.099 40.96 206.459 41.12C209.739 41.48 214.379 42.56 213.979 46.44C213.419 51.72 207.779 51.32 204.299 52.6C203.579 56.28 203.819 57.76 204.859 61.4C204.899 61.64 205.459 62.24 205.739 62.76C206.459 64.24 203.899 64.24 202.779 63.84C201.299 63.32 201.179 61.28 200.979 59.64C200.259 54.32 201.339 49.36 201.859 44.24ZM206.099 44.44C205.059 45.48 204.339 48.88 205.219 49.32C206.699 50 209.819 48.84 210.179 46.16C210.379 45 209.579 44.6 208.819 44.44C207.939 44.04 206.619 43.88 206.099 44.44Z" fill="black"/>
<path d="M214.92 45C214.92 42.12 216.84 39.04 215.88 36.52C215.68 35.56 215.12 34.2 216.08 33.64C220.88 30.76 227.04 33.28 229.92 37.88C231.64 40.56 228.4 43.08 226.08 44.6C226.84 48.64 228.04 52.88 229.92 56.52C230.52 57.68 228 58.48 227.04 57.68C223.56 54.8 224.6 49.56 221.68 46.32C221.12 45.72 219.16 45.76 218.76 46.52C217.8 49.6 219.6 52.88 219.72 55.96C219.76 56.72 218.2 57.32 217.04 57.12C216.48 56.92 216.08 56.36 215.88 55.96C214.56 52.48 214.92 48.64 214.92 45ZM219.56 39.8C219.24 40.72 218.4 42.44 219.36 42.68C221.68 43.24 224.36 42.48 226.08 40.96C226.48 40.76 227.24 40.16 226.84 39.6C225.72 37.28 223.2 36.36 221.08 36.12C219.56 35.96 219.92 38.64 219.56 39.8ZM232.086 47.88C232.086 46.28 232.086 44.72 232.806 43.32C233.326 42.28 234.726 41.92 235.926 42.44C236.646 42.76 237.486 43.68 236.806 44.36C235.566 46.12 236.286 47.88 235.766 49.44C235.086 51.36 236.286 53.12 235.766 55.04C235.766 55.2 235.566 55.56 235.406 55.56C234.166 55.92 232.646 56.08 232.246 54.84C231.566 52.56 232.086 50.12 232.086 47.88ZM233.086 38.84C232.446 38.04 233.086 36.28 233.646 35.92C234.886 35.2 236.526 35.24 237.246 36.28C237.966 37.36 236.886 39.16 236.166 39.56C235.246 40.04 234.006 39.88 233.086 38.84ZM246.189 40.12C248.149 40.96 250.509 41.44 251.469 43.36C251.789 43.96 251.269 45.12 250.829 45.4C248.789 46.68 245.989 41.88 242.949 43.8C241.789 44.56 243.629 46.4 244.429 46.68C246.869 47.56 248.869 48.44 250.749 50.16C251.909 51.28 251.469 53.44 250.629 54.84C248.549 58.32 241.189 60.24 238.789 55.28C238.229 54.16 239.549 52.92 240.669 52.84C241.629 52.76 241.749 54.28 242.509 54.64C244.389 55.6 247.669 54.6 247.669 52.32C247.669 51.76 246.589 50.88 245.829 50.56C243.149 49.36 240.069 48.68 238.789 46C237.229 42.8 243.549 38.96 246.189 40.12ZM252.458 46.72C252.378 42.76 255.298 39.88 259.218 40.44C262.338 40.88 265.178 43.88 265.138 47.24C264.498 49.16 260.018 50.8 258.498 52.24C258.338 52.28 257.618 52.68 257.858 53.08C259.258 55.52 261.818 54.44 264.058 53.28C265.498 54.32 264.738 56.72 263.098 56.96C261.298 57.24 259.338 57.72 257.418 56.88C253.418 55.08 252.538 50.56 252.458 46.72ZM256.818 48.76C258.698 48.68 260.538 48.16 261.138 46.24C262.018 44.24 258.698 43.2 257.098 44.04C255.338 44.96 255.858 48.68 256.818 48.76Z" fill="#010101"/>
</svg>
