<svg width="142" height="144" viewBox="0 0 142 144" fill="none" xmlns="http://www.w3.org/2000/svg">
<path d="M2.8 119.16C1.88 117.96 0.64 117.2 1.52 116.12C5 111.76 10.88 111.72 15.92 110.44C17 110.16 18.16 110.88 18.52 111.76C19 112.84 17.68 113.72 16.8 113.92C13.72 115.04 10.48 114.6 7.64 116.12C7.2 116.36 6.76 116.76 6.96 117.2C10.24 122.24 19.2 124 17.44 130.52C15.92 136.2 7.6 137.16 2.6 134.88C0.36 133.88 1.72 130.96 3.68 130.08C4.8 129.88 4.8 131.4 5.64 131.64C6.52 131.84 7.4 131.64 8.28 132.08C10.04 132.92 11.56 131.84 13.08 131.2C13.96 130.52 13.96 129.44 13.52 128.56C10.44 124.64 5.88 123.12 2.8 119.16ZM19.4963 120.24C19.6963 117.36 18.4162 114.12 19.4963 111.6C19.8563 110.68 21.4563 110.16 22.7363 110.52C22.8963 110.68 23.2563 111.24 23.2563 111.4C23.2563 115.36 22.7363 119.16 22.8963 123.12C23.0963 123.48 23.6163 123.28 23.8163 123.28C25.7763 121.84 27.7763 119.52 30.2963 121.12C31.3763 121.68 30.4963 122.76 29.7763 123.12C28.4963 124 26.8563 124.56 25.6163 125.8C28.4963 127.96 31.0163 130.32 33.5363 132.64C34.0963 133.36 33.5363 134.08 33.0163 134.44C32.2963 135.36 30.8563 135.36 30.2963 134.64C28.3363 132.64 26.1363 131.04 23.9763 129.24C23.9763 129.24 23.2563 128.68 23.4563 129.6C23.2563 131.2 23.9763 133 23.8163 134.64C23.6163 136.24 21.0563 136.28 20.7363 135.52C18.7363 130.88 19.1363 125.44 19.4963 120.24ZM35.4534 125.88C35.4534 124.28 35.4534 122.72 36.1734 121.32C36.6934 120.28 38.0934 119.92 39.2934 120.44C40.0134 120.76 40.8534 121.68 40.1734 122.36C38.9334 124.12 39.6534 125.88 39.1334 127.44C38.4534 129.36 39.6534 131.12 39.1334 133.04C39.1334 133.2 38.9334 133.56 38.7734 133.56C37.5334 133.92 36.0134 134.08 35.6134 132.84C34.9334 130.56 35.4534 128.12 35.4534 125.88ZM36.4534 116.84C35.8134 116.04 36.4534 114.28 37.0134 113.92C38.2534 113.2 39.8934 113.24 40.6134 114.28C41.3334 115.36 40.2534 117.16 39.5334 117.56C38.6134 118.04 37.3734 117.88 36.4534 116.84ZM43.4363 121.28C43.5563 118.08 41.8363 114.48 43.2363 111.68C43.9963 110.12 46.9963 109.72 47.1563 112.08C47.1963 112.48 46.9563 113.28 46.9563 113.68C46.9563 116.48 47.1163 119.48 46.9563 122.24C46.7163 126.64 47.9963 131.04 46.1562 135C45.5963 136.24 44.1963 136.2 43.0363 135.6C42.4363 135.2 42.1963 134.2 42.4363 133.4C43.5963 129.44 43.2363 125.44 43.4363 121.28ZM51.3659 121.28C51.4859 118.08 49.7659 114.48 51.1659 111.68C51.9259 110.12 54.9259 109.72 55.0859 112.08C55.1259 112.48 54.8859 113.28 54.8859 113.68C54.8859 116.48 55.0459 119.48 54.8859 122.24C54.6459 126.64 55.9259 131.04 54.0859 135C53.5259 136.24 52.1259 136.2 50.9659 135.6C50.3659 135.2 50.1259 134.2 50.3659 133.4C51.5259 129.44 51.1659 125.44 51.3659 121.28Z" fill="white"/>
<path d="M61.64 133.16C57.2 128.48 57.12 121.6 58.92 115.6C59.36 114.16 61.2 113.12 62.88 113.92C63.28 114.36 63.68 114.96 63.48 115.8C61.4 120.56 61.24 127.96 65.76 130.68C69.12 132.72 71.16 128 71.56 124.88C72.4 121.36 71.36 117.88 71.36 114.36C71.16 112.88 73.2 112.48 74.88 112.08C74.88 112.68 75.68 112.48 75.68 112.88C76.52 118.88 76.76 124.92 73.2 130.08C70.76 133.6 64.92 136.68 61.64 133.16ZM77.8588 122.24C77.9388 121.68 77.1388 121.16 77.4988 120.6C78.6188 119.68 77.4988 118 78.7788 117.12C79.8588 116.36 81.1788 116.2 81.8988 117.12C82.4588 117.68 82.0987 118.96 82.4588 119.12C85.7388 119.48 90.3788 120.56 89.9788 124.44C89.4188 129.72 83.7788 129.32 80.2988 130.6C79.5788 134.28 79.8188 135.76 80.8588 139.4C80.8988 139.64 81.4588 140.24 81.7388 140.76C82.4588 142.24 79.8988 142.24 78.7788 141.84C77.2988 141.32 77.1788 139.28 76.9788 137.64C76.2588 132.32 77.3388 127.36 77.8588 122.24ZM82.0987 122.44C81.0588 123.48 80.3388 126.88 81.2188 127.32C82.6988 128 85.8188 126.84 86.1788 124.16C86.3788 123 85.5788 122.6 84.8188 122.44C83.9388 122.04 82.6188 121.88 82.0987 122.44Z" fill="white"/>
<path d="M90.92 123C90.92 120.12 92.84 117.04 91.88 114.52C91.68 113.56 91.12 112.2 92.08 111.64C96.88 108.76 103.04 111.28 105.92 115.88C107.64 118.56 104.4 121.08 102.08 122.6C102.84 126.64 104.04 130.88 105.92 134.52C106.52 135.68 104 136.48 103.04 135.68C99.56 132.8 100.6 127.56 97.68 124.32C97.12 123.72 95.16 123.76 94.76 124.52C93.8 127.6 95.6 130.88 95.72 133.96C95.76 134.72 94.2 135.32 93.04 135.12C92.48 134.92 92.08 134.36 91.88 133.96C90.56 130.48 90.92 126.64 90.92 123ZM95.56 117.8C95.24 118.72 94.4 120.44 95.36 120.68C97.68 121.24 100.36 120.48 102.08 118.96C102.48 118.76 103.24 118.16 102.84 117.6C101.72 115.28 99.2 114.36 97.08 114.12C95.56 113.96 95.92 116.64 95.56 117.8ZM108.086 125.88C108.086 124.28 108.086 122.72 108.806 121.32C109.326 120.28 110.726 119.92 111.926 120.44C112.646 120.76 113.486 121.68 112.806 122.36C111.566 124.12 112.286 125.88 111.766 127.44C111.086 129.36 112.286 131.12 111.766 133.04C111.766 133.2 111.566 133.56 111.406 133.56C110.166 133.92 108.646 134.08 108.246 132.84C107.566 130.56 108.086 128.12 108.086 125.88ZM109.086 116.84C108.446 116.04 109.086 114.28 109.646 113.92C110.886 113.2 112.526 113.24 113.246 114.28C113.966 115.36 112.886 117.16 112.166 117.56C111.246 118.04 110.006 117.88 109.086 116.84ZM122.189 118.12C124.149 118.96 126.509 119.44 127.469 121.36C127.789 121.96 127.269 123.12 126.829 123.4C124.789 124.68 121.989 119.88 118.949 121.8C117.789 122.56 119.629 124.4 120.429 124.68C122.869 125.56 124.869 126.44 126.749 128.16C127.909 129.28 127.469 131.44 126.629 132.84C124.549 136.32 117.189 138.24 114.789 133.28C114.229 132.16 115.549 130.92 116.669 130.84C117.629 130.76 117.749 132.28 118.509 132.64C120.389 133.6 123.669 132.6 123.669 130.32C123.669 129.76 122.589 128.88 121.829 128.56C119.149 127.36 116.069 126.68 114.789 124C113.229 120.8 119.549 116.96 122.189 118.12ZM128.458 124.72C128.378 120.76 131.298 117.88 135.218 118.44C138.338 118.88 141.178 121.88 141.138 125.24C140.498 127.16 136.018 128.8 134.498 130.24C134.338 130.28 133.618 130.68 133.858 131.08C135.258 133.52 137.818 132.44 140.058 131.28C141.498 132.32 140.738 134.72 139.098 134.96C137.298 135.24 135.338 135.72 133.418 134.88C129.418 133.08 128.538 128.56 128.458 124.72ZM132.818 126.76C134.698 126.68 136.538 126.16 137.138 124.24C138.018 122.24 134.698 121.2 133.098 122.04C131.338 122.96 131.858 126.68 132.818 126.76Z" fill="white"/>
<circle cx="64.5" cy="48.5" r="36.5" fill="#5E4CE9"/>
<circle cx="121.5" cy="44.5" r="7.5" fill="#5E4CE9"/>
<ellipse cx="85" cy="36.5" rx="21" ry="20.5" fill="#F7A50C" fill-opacity="0.68"/>
<circle cx="52" cy="40" r="30" fill="#6D1089" fill-opacity="0.68"/>
<ellipse cx="80" cy="61.5" rx="21" ry="21.5" fill="#FF2E69" fill-opacity="0.8"/>
<circle cx="16.5" cy="60.5" r="2.5" fill="#BA6DD2" fill-opacity="0.68"/>
<circle cx="33.5" cy="87.5" r="2.5" fill="#F7A50C" fill-opacity="0.68"/>
<circle cx="80" cy="5" r="5" fill="#FF2E69" fill-opacity="0.68"/>
<circle cx="112" cy="58" r="3" fill="#FF2E69" fill-opacity="0.68"/>
<path d="M52.1363 42.4378C52.4445 41.1448 51.6274 39.8511 50.3112 39.5483C48.9949 39.2455 47.678 40.0482 47.3698 41.3413C47.0616 42.6343 47.8787 43.928 49.1949 44.2308C50.5112 44.5336 51.8281 43.7308 52.1363 42.4378Z" fill="#F7F7F7"/>
<path d="M50.9233 45H49.0557C46.4144 45 44 45.5837 44 46.8108V55.0822C44 55.6489 44.487 56.1093 45.087 56.1093C45.3236 56.1093 45.5417 56.0375 45.7197 55.9169C45.9942 55.7295 46.1722 55.4257 46.1722 55.0822V48.6842H46.6438V67.5881C46.6438 68.368 47.3119 69 48.1363 69H48.2707C49.0955 69 49.7629 68.368 49.7629 67.5881V57.2116H50.2355V67.5881C50.2355 68.368 50.9026 69 51.7277 69H51.8624C52.6866 69 53.3543 68.368 53.3543 67.5881V48.6845H53.8266V55.0816C53.8266 55.423 54.0017 55.7248 54.2709 55.9112C54.4517 56.0366 54.672 56.1098 54.913 56.1098C55.5124 56.1098 56 55.6495 56 55.0816V46.9564C56.0006 45.6844 53.5865 45.0003 50.923 45.0003L50.9233 45Z" fill="#F7F7F7"/>
<path d="M66.4923 38.0108C66.8519 36.5022 65.8986 34.9929 64.363 34.6397C62.8274 34.2864 61.291 35.2229 60.9314 36.7315C60.5718 38.24 61.5251 39.7493 63.0607 40.1026C64.5963 40.4558 66.1327 39.5193 66.4923 38.0108Z" fill="#F7F7F7"/>
<path d="M65.0772 41H62.8983C59.8168 41 57 41.6809 57 43.1126V52.7625C57 53.4237 57.5681 53.9608 58.2682 53.9608C58.5442 53.9608 58.7987 53.8771 59.0063 53.7364C59.3266 53.5178 59.5342 53.1633 59.5342 52.7625V45.2982H60.0844V67.3528C60.0844 68.2627 60.8638 69 61.8257 69H61.9825C62.9447 69 63.7234 68.2627 63.7234 67.3528V55.2469H64.2747V67.3528C64.2747 68.2627 65.0531 69 66.0156 69H66.1728C67.1343 69 67.9134 68.2627 67.9134 67.3528V45.2986H68.4643V52.7618C68.4643 53.1602 68.6687 53.5123 68.9827 53.7298C69.1937 53.8761 69.4507 53.9615 69.7318 53.9615C70.4312 53.9615 71 53.4244 71 52.7618V43.2824C71.0007 41.7985 68.1843 41.0003 65.0768 41.0003L65.0772 41Z" fill="#F7F7F7"/>
<path d="M82.8484 33.5837C83.2594 31.8597 82.1698 30.1348 80.4149 29.731C78.6599 29.3273 76.904 30.3976 76.493 32.1217C76.0821 33.8457 77.1716 35.5706 78.9266 35.9744C80.6816 36.3781 82.4374 35.3078 82.8484 33.5837Z" fill="#F7F7F7"/>
<path d="M81.2311 37H78.7409C75.2192 37 72 37.7782 72 39.4144V50.4429C72 51.1986 72.6493 51.8123 73.4494 51.8123C73.7648 51.8123 74.0556 51.7167 74.2929 51.5558C74.6589 51.3061 74.8963 50.9009 74.8963 50.4429V41.9123H75.5251V67.1175C75.5251 68.1574 76.4158 69 77.5151 69H77.6943C78.794 69 79.6839 68.1574 79.6839 67.1175V53.2822H80.314V67.1175C80.314 68.1574 81.2035 69 82.3036 69H82.4832C83.5821 69 84.4724 68.1574 84.4724 67.1175V41.9127H85.1021V50.4421C85.1021 50.8974 85.3356 51.2997 85.6945 51.5483C85.9356 51.7155 86.2293 51.8131 86.5506 51.8131C87.3499 51.8131 88 51.1993 88 50.4421V39.6085C88.0008 37.9126 84.782 37.0004 81.2307 37.0004L81.2311 37Z" fill="#F7F7F7"/>
</svg>
